<svg xmlns="http://www.w3.org/2000/svg" viewBox="0 0 41 41" shape-rendering="crispEdges" role="img" aria-label="QR code: https://m61.ai/ai2026summit/">
<title>https://m61.ai/ai2026summit/</title>
<rect width="41" height="41" fill="#fff"/>
<path d="M4 4h1v1h-1zM5 4h1v1h-1zM6 4h1v1h-1zM7 4h1v1h-1zM8 4h1v1h-1zM9 4h1v1h-1zM10 4h1v1h-1zM15 4h1v1h-1zM16 4h1v1h-1zM17 4h1v1h-1zM18 4h1v1h-1zM20 4h1v1h-1zM22 4h1v1h-1zM23 4h1v1h-1zM24 4h1v1h-1zM26 4h1v1h-1zM28 4h1v1h-1zM30 4h1v1h-1zM31 4h1v1h-1zM32 4h1v1h-1zM33 4h1v1h-1zM34 4h1v1h-1zM35 4h1v1h-1zM36 4h1v1h-1zM4 5h1v1h-1zM10 5h1v1h-1zM14 5h1v1h-1zM15 5h1v1h-1zM16 5h1v1h-1zM18 5h1v1h-1zM24 5h1v1h-1zM25 5h1v1h-1zM26 5h1v1h-1zM28 5h1v1h-1zM30 5h1v1h-1zM36 5h1v1h-1zM4 6h1v1h-1zM6 6h1v1h-1zM7 6h1v1h-1zM8 6h1v1h-1zM10 6h1v1h-1zM12 6h1v1h-1zM14 6h1v1h-1zM15 6h1v1h-1zM19 6h1v1h-1zM20 6h1v1h-1zM21 6h1v1h-1zM22 6h1v1h-1zM23 6h1v1h-1zM24 6h1v1h-1zM25 6h1v1h-1zM27 6h1v1h-1zM28 6h1v1h-1zM30 6h1v1h-1zM32 6h1v1h-1zM33 6h1v1h-1zM34 6h1v1h-1zM36 6h1v1h-1zM4 7h1v1h-1zM6 7h1v1h-1zM7 7h1v1h-1zM8 7h1v1h-1zM10 7h1v1h-1zM12 7h1v1h-1zM13 7h1v1h-1zM14 7h1v1h-1zM18 7h1v1h-1zM19 7h1v1h-1zM21 7h1v1h-1zM22 7h1v1h-1zM23 7h1v1h-1zM24 7h1v1h-1zM25 7h1v1h-1zM27 7h1v1h-1zM30 7h1v1h-1zM32 7h1v1h-1zM33 7h1v1h-1zM34 7h1v1h-1zM36 7h1v1h-1zM4 8h1v1h-1zM6 8h1v1h-1zM7 8h1v1h-1zM8 8h1v1h-1zM10 8h1v1h-1zM14 8h1v1h-1zM15 8h1v1h-1zM17 8h1v1h-1zM19 8h1v1h-1zM21 8h1v1h-1zM27 8h1v1h-1zM28 8h1v1h-1zM30 8h1v1h-1zM32 8h1v1h-1zM33 8h1v1h-1zM34 8h1v1h-1zM36 8h1v1h-1zM4 9h1v1h-1zM10 9h1v1h-1zM16 9h1v1h-1zM17 9h1v1h-1zM22 9h1v1h-1zM24 9h1v1h-1zM27 9h1v1h-1zM30 9h1v1h-1zM36 9h1v1h-1zM4 10h1v1h-1zM5 10h1v1h-1zM6 10h1v1h-1zM7 10h1v1h-1zM8 10h1v1h-1zM9 10h1v1h-1zM10 10h1v1h-1zM12 10h1v1h-1zM14 10h1v1h-1zM16 10h1v1h-1zM18 10h1v1h-1zM20 10h1v1h-1zM22 10h1v1h-1zM24 10h1v1h-1zM26 10h1v1h-1zM28 10h1v1h-1zM30 10h1v1h-1zM31 10h1v1h-1zM32 10h1v1h-1zM33 10h1v1h-1zM34 10h1v1h-1zM35 10h1v1h-1zM36 10h1v1h-1zM13 11h1v1h-1zM14 11h1v1h-1zM15 11h1v1h-1zM17 11h1v1h-1zM20 11h1v1h-1zM23 11h1v1h-1zM24 11h1v1h-1zM26 11h1v1h-1zM28 11h1v1h-1zM7 12h1v1h-1zM8 12h1v1h-1zM10 12h1v1h-1zM11 12h1v1h-1zM13 12h1v1h-1zM16 12h1v1h-1zM18 12h1v1h-1zM20 12h1v1h-1zM21 12h1v1h-1zM22 12h1v1h-1zM24 12h1v1h-1zM28 12h1v1h-1zM33 12h1v1h-1zM34 12h1v1h-1zM4 13h1v1h-1zM7 13h1v1h-1zM9 13h1v1h-1zM12 13h1v1h-1zM13 13h1v1h-1zM15 13h1v1h-1zM19 13h1v1h-1zM21 13h1v1h-1zM22 13h1v1h-1zM25 13h1v1h-1zM26 13h1v1h-1zM27 13h1v1h-1zM29 13h1v1h-1zM31 13h1v1h-1zM32 13h1v1h-1zM34 13h1v1h-1zM35 13h1v1h-1zM4 14h1v1h-1zM5 14h1v1h-1zM6 14h1v1h-1zM9 14h1v1h-1zM10 14h1v1h-1zM11 14h1v1h-1zM12 14h1v1h-1zM13 14h1v1h-1zM18 14h1v1h-1zM19 14h1v1h-1zM20 14h1v1h-1zM26 14h1v1h-1zM27 14h1v1h-1zM29 14h1v1h-1zM31 14h1v1h-1zM33 14h1v1h-1zM36 14h1v1h-1zM7 15h1v1h-1zM11 15h1v1h-1zM14 15h1v1h-1zM17 15h1v1h-1zM18 15h1v1h-1zM22 15h1v1h-1zM23 15h1v1h-1zM25 15h1v1h-1zM26 15h1v1h-1zM27 15h1v1h-1zM30 15h1v1h-1zM31 15h1v1h-1zM32 15h1v1h-1zM33 15h1v1h-1zM34 15h1v1h-1zM35 15h1v1h-1zM5 16h1v1h-1zM6 16h1v1h-1zM7 16h1v1h-1zM8 16h1v1h-1zM9 16h1v1h-1zM10 16h1v1h-1zM11 16h1v1h-1zM12 16h1v1h-1zM28 16h1v1h-1zM30 16h1v1h-1zM31 16h1v1h-1zM32 16h1v1h-1zM6 17h1v1h-1zM11 17h1v1h-1zM28 17h1v1h-1zM29 17h1v1h-1zM31 17h1v1h-1zM32 17h1v1h-1zM33 17h1v1h-1zM34 17h1v1h-1zM35 17h1v1h-1zM8 18h1v1h-1zM9 18h1v1h-1zM10 18h1v1h-1zM12 18h1v1h-1zM31 18h1v1h-1zM34 18h1v1h-1zM7 19h1v1h-1zM8 19h1v1h-1zM9 19h1v1h-1zM28 19h1v1h-1zM31 19h1v1h-1zM34 19h1v1h-1zM36 19h1v1h-1zM5 20h1v1h-1zM6 20h1v1h-1zM7 20h1v1h-1zM10 20h1v1h-1zM11 20h1v1h-1zM12 20h1v1h-1zM29 20h1v1h-1zM30 20h1v1h-1zM32 20h1v1h-1zM33 20h1v1h-1zM35 20h1v1h-1zM4 21h1v1h-1zM6 21h1v1h-1zM12 21h1v1h-1zM28 21h1v1h-1zM29 21h1v1h-1zM30 21h1v1h-1zM32 21h1v1h-1zM33 21h1v1h-1zM35 21h1v1h-1zM36 21h1v1h-1zM4 22h1v1h-1zM5 22h1v1h-1zM6 22h1v1h-1zM10 22h1v1h-1zM11 22h1v1h-1zM29 22h1v1h-1zM30 22h1v1h-1zM31 22h1v1h-1zM33 22h1v1h-1zM34 22h1v1h-1zM36 22h1v1h-1zM4 23h1v1h-1zM5 23h1v1h-1zM7 23h1v1h-1zM9 23h1v1h-1zM12 23h1v1h-1zM28 23h1v1h-1zM30 23h1v1h-1zM33 23h1v1h-1zM34 23h1v1h-1zM36 23h1v1h-1zM5 24h1v1h-1zM6 24h1v1h-1zM10 24h1v1h-1zM11 24h1v1h-1zM12 24h1v1h-1zM28 24h1v1h-1zM29 24h1v1h-1zM31 24h1v1h-1zM33 24h1v1h-1zM35 24h1v1h-1zM36 24h1v1h-1zM4 25h1v1h-1zM6 25h1v1h-1zM7 25h1v1h-1zM12 25h1v1h-1zM13 25h1v1h-1zM14 25h1v1h-1zM17 25h1v1h-1zM22 25h1v1h-1zM25 25h1v1h-1zM26 25h1v1h-1zM29 25h1v1h-1zM30 25h1v1h-1zM32 25h1v1h-1zM33 25h1v1h-1zM34 25h1v1h-1zM35 25h1v1h-1zM4 26h1v1h-1zM9 26h1v1h-1zM10 26h1v1h-1zM12 26h1v1h-1zM13 26h1v1h-1zM17 26h1v1h-1zM18 26h1v1h-1zM19 26h1v1h-1zM20 26h1v1h-1zM21 26h1v1h-1zM22 26h1v1h-1zM25 26h1v1h-1zM26 26h1v1h-1zM28 26h1v1h-1zM30 26h1v1h-1zM33 26h1v1h-1zM36 26h1v1h-1zM4 27h1v1h-1zM6 27h1v1h-1zM8 27h1v1h-1zM9 27h1v1h-1zM12 27h1v1h-1zM15 27h1v1h-1zM20 27h1v1h-1zM22 27h1v1h-1zM24 27h1v1h-1zM32 27h1v1h-1zM33 27h1v1h-1zM34 27h1v1h-1zM35 27h1v1h-1zM4 28h1v1h-1zM5 28h1v1h-1zM6 28h1v1h-1zM7 28h1v1h-1zM8 28h1v1h-1zM9 28h1v1h-1zM10 28h1v1h-1zM12 28h1v1h-1zM13 28h1v1h-1zM14 28h1v1h-1zM15 28h1v1h-1zM16 28h1v1h-1zM20 28h1v1h-1zM22 28h1v1h-1zM28 28h1v1h-1zM29 28h1v1h-1zM30 28h1v1h-1zM31 28h1v1h-1zM32 28h1v1h-1zM35 28h1v1h-1zM12 29h1v1h-1zM15 29h1v1h-1zM16 29h1v1h-1zM17 29h1v1h-1zM18 29h1v1h-1zM19 29h1v1h-1zM21 29h1v1h-1zM24 29h1v1h-1zM27 29h1v1h-1zM28 29h1v1h-1zM32 29h1v1h-1zM34 29h1v1h-1zM35 29h1v1h-1zM4 30h1v1h-1zM5 30h1v1h-1zM6 30h1v1h-1zM7 30h1v1h-1zM8 30h1v1h-1zM9 30h1v1h-1zM10 30h1v1h-1zM12 30h1v1h-1zM13 30h1v1h-1zM15 30h1v1h-1zM21 30h1v1h-1zM22 30h1v1h-1zM23 30h1v1h-1zM24 30h1v1h-1zM25 30h1v1h-1zM26 30h1v1h-1zM27 30h1v1h-1zM28 30h1v1h-1zM30 30h1v1h-1zM32 30h1v1h-1zM34 30h1v1h-1zM4 31h1v1h-1zM10 31h1v1h-1zM14 31h1v1h-1zM15 31h1v1h-1zM16 31h1v1h-1zM17 31h1v1h-1zM19 31h1v1h-1zM20 31h1v1h-1zM21 31h1v1h-1zM24 31h1v1h-1zM27 31h1v1h-1zM28 31h1v1h-1zM32 31h1v1h-1zM34 31h1v1h-1zM35 31h1v1h-1zM4 32h1v1h-1zM6 32h1v1h-1zM7 32h1v1h-1zM8 32h1v1h-1zM10 32h1v1h-1zM12 32h1v1h-1zM13 32h1v1h-1zM14 32h1v1h-1zM15 32h1v1h-1zM16 32h1v1h-1zM17 32h1v1h-1zM18 32h1v1h-1zM20 32h1v1h-1zM22 32h1v1h-1zM25 32h1v1h-1zM27 32h1v1h-1zM28 32h1v1h-1zM29 32h1v1h-1zM30 32h1v1h-1zM31 32h1v1h-1zM32 32h1v1h-1zM35 32h1v1h-1zM4 33h1v1h-1zM6 33h1v1h-1zM7 33h1v1h-1zM8 33h1v1h-1zM10 33h1v1h-1zM12 33h1v1h-1zM14 33h1v1h-1zM15 33h1v1h-1zM16 33h1v1h-1zM17 33h1v1h-1zM21 33h1v1h-1zM22 33h1v1h-1zM23 33h1v1h-1zM25 33h1v1h-1zM29 33h1v1h-1zM31 33h1v1h-1zM35 33h1v1h-1zM4 34h1v1h-1zM6 34h1v1h-1zM7 34h1v1h-1zM8 34h1v1h-1zM10 34h1v1h-1zM13 34h1v1h-1zM15 34h1v1h-1zM17 34h1v1h-1zM18 34h1v1h-1zM19 34h1v1h-1zM21 34h1v1h-1zM24 34h1v1h-1zM26 34h1v1h-1zM27 34h1v1h-1zM28 34h1v1h-1zM32 34h1v1h-1zM35 34h1v1h-1zM36 34h1v1h-1zM4 35h1v1h-1zM10 35h1v1h-1zM13 35h1v1h-1zM14 35h1v1h-1zM16 35h1v1h-1zM22 35h1v1h-1zM26 35h1v1h-1zM29 35h1v1h-1zM30 35h1v1h-1zM34 35h1v1h-1zM35 35h1v1h-1zM36 35h1v1h-1zM4 36h1v1h-1zM5 36h1v1h-1zM6 36h1v1h-1zM7 36h1v1h-1zM8 36h1v1h-1zM9 36h1v1h-1zM10 36h1v1h-1zM13 36h1v1h-1zM16 36h1v1h-1zM18 36h1v1h-1zM20 36h1v1h-1zM22 36h1v1h-1zM23 36h1v1h-1zM27 36h1v1h-1zM28 36h1v1h-1zM32 36h1v1h-1zM34 36h1v1h-1z" fill="#000"/>
<rect x="13.030" y="16.432" width="14.940" height="8.136" fill="#fff"/>
<path d="M0 0H126.72V57.96H0ZM17.400 51.360L7.200 51.360L7.200 7.560L22.680 7.560L31.680 30.660L32.880 30.660L41.820 7.560L57.600 7.560L57.600 51.360L46.560 51.360L46.560 18.480L37.020 42.540L26.880 42.540L17.400 18.780M81.060 52.680Q76.200 52.680 72.630 51.090Q69.060 49.500 66.750 46.620Q64.440 43.740 63.330 39.930Q62.220 36.120 62.220 31.740L62.220 29.340Q62.220 18.240 67.920 12.720Q73.620 7.200 84.840 7.200Q87.060 7.200 89.400 7.320Q91.740 7.440 93.780 7.680L93.780 17.040Q91.800 16.860 89.340 16.710Q86.880 16.560 84.480 16.560Q79.860 16.560 77.250 18Q74.640 19.440 73.620 22.380Q72.960 24.180 72.720 26.640Q74.340 24.420 76.860 23.220Q79.980 21.720 84.060 21.720Q88.680 21.720 92.070 23.550Q95.460 25.380 97.320 28.680Q99.180 31.980 99.180 36.540Q99.180 41.460 96.870 45.090Q94.560 48.720 90.480 50.700Q86.400 52.680 81.060 52.680M80.700 43.440Q83.100 43.440 84.810 42.600Q86.520 41.760 87.450 40.260Q88.380 38.760 88.380 36.780Q88.380 34.740 87.480 33.270Q86.580 31.800 84.900 30.960Q83.220 30.120 80.880 30.120Q78.780 30.120 76.980 30.840Q75.180 31.560 74.100 33.030Q73.020 34.500 73.020 36.780Q73.020 38.760 73.920 40.260Q74.820 41.760 76.530 42.600Q78.240 43.440 80.700 43.440M119.520 51.360L108.360 51.360L108.360 17.280L100.200 17.280L100.200 7.560L119.520 7.560" fill="#000" fill-rule="evenodd" transform="translate(14.230 17.632) scale(0.09896)"/>
</svg>
